<svg xmlns="http://www.w3.org/2000/svg" xmlns:xlink="http://www.w3.org/1999/xlink" preserveAspectRatio="xMidYMid" width="31.75" height="26" viewBox="0 0 31.75 26">
  <defs>
    <style>
      .cls-1 {
        fill: #333;
        fill-rule: evenodd;
      }
    </style>
  </defs>
  <path d="M27.076,0.767 C23.247,-0.999 18.721,0.410 16.604,3.898 C16.603,3.899 16.603,3.899 16.600,3.900 C16.595,3.912 16.590,3.923 16.580,3.933 C16.580,3.937 16.577,3.940 16.575,3.944 C16.430,4.169 16.173,4.319 15.882,4.319 C15.590,4.319 15.333,4.170 15.188,3.944 C15.185,3.940 15.185,3.937 15.182,3.933 C15.174,3.923 15.168,3.912 15.162,3.900 C15.162,3.900 15.162,3.900 15.161,3.898 C13.044,0.410 8.518,-0.999 4.688,0.767 C0.620,2.642 -1.126,7.389 0.792,11.371 C2.304,14.512 10.822,22.279 14.349,25.419 L14.352,25.419 C14.755,25.778 15.292,26.000 15.882,26.000 C16.468,26.000 17.003,25.780 17.408,25.424 C20.930,22.290 29.457,14.515 30.973,11.371 C32.891,7.389 31.147,2.642 27.076,0.767 Z" class="cls-1"/>
</svg>
